<svg width="175" height="50" viewBox="0 0 175 50" fill="none" xmlns="http://www.w3.org/2000/svg">
<path d="M9.11959 35.9152C8.86535 35.9152 8.62127 35.7745 8.49992 35.5309C8.3292 35.1878 8.46809 34.7706 8.80999 34.5993C11.9738 33.0135 15.6092 28.3606 16.4374 24.8374C16.5246 24.4642 16.8942 24.2323 17.2703 24.3212C17.6422 24.4091 17.8729 24.7833 17.7847 25.1569C16.8624 29.0806 12.958 34.0733 9.42827 35.8421C9.32906 35.8921 9.22386 35.9152 9.11959 35.9152Z" fill="white"/>
<path d="M34.4478 8.37564C33.1743 7.0977 31.7666 7 31.3656 7C30.632 7 29.926 7.29217 29.4093 7.81029L23.7986 13.4453C23.6602 13.5846 23.5356 13.7421 23.4346 13.9037C23.2634 14.0194 23.1111 14.1588 22.9681 14.3204C22.7789 14.5426 18.2438 19.7002 16.55 22.1413C16.1624 22.7057 15.8348 23.2294 15.5584 23.7105C15.0186 23.1923 14.4967 22.715 14.2573 22.5024C13.7308 22.026 13.0715 21.7889 12.407 21.7889C11.8067 21.7889 11.2074 21.9788 10.7045 22.3733C10.686 22.3867 8.60046 24.0119 6.59843 25.0861C0.470998 28.3824 -1.50842 33.7534 1.1631 39.8241C1.42149 40.4163 1.88289 40.8983 2.45964 41.1849C2.71388 41.3141 5.05273 42.4304 8.64244 42.4304C12.2091 42.4304 15.7291 41.366 19.1158 39.2546C19.167 39.2222 19.2178 39.1893 19.2732 39.1522L25.0084 35.0128C25.8528 34.4016 26.2823 33.3696 26.1301 32.337C25.9732 31.3087 25.2534 30.4525 24.2655 30.1187C23.2878 29.7904 22.162 29.2811 21.6171 28.9384C21.6863 28.7204 21.8575 28.2944 22.2958 27.4841C22.8592 26.4377 26.2408 22.4515 29.0512 19.3631C29.0558 19.3576 29.0604 19.3488 29.0692 19.3442C29.1846 19.2608 29.2953 19.1631 29.3973 19.0622L35.0075 13.4318C35.5289 12.9082 35.82 12.2048 35.82 11.4686C35.8186 11.0653 35.7213 9.65358 34.4478 8.37564ZM19.8587 26.1603C18.7836 28.1555 18.516 29.1834 19.1389 30.3645C19.7618 31.5402 23.3884 32.7584 23.3884 32.7584L17.6527 36.8973C14.1922 39.0504 11.0597 39.6518 8.64198 39.6518C5.60134 39.6518 3.69528 38.6985 3.69528 38.6985C0.733075 31.9657 5.66132 28.7435 7.90374 27.5346C10.1503 26.3265 12.407 24.5666 12.407 24.5666C12.407 24.5666 14.2573 26.2386 14.7786 26.8873C15.0093 27.1692 15.42 27.8406 15.9691 27.9291C16.006 27.9337 16.0429 27.9383 16.0844 27.9383C16.3336 27.9383 16.6058 27.8133 16.9057 27.4799C16.9057 27.4799 17.2102 26.0626 18.8251 23.7253C19.9321 22.1274 22.4329 19.1784 23.9052 17.4745C24.1451 17.6916 24.4215 17.8634 24.7219 17.9838C24.7403 18.0065 24.768 18.0301 24.7957 18.0579C24.828 18.0903 24.8511 18.1176 24.8741 18.1412C25.0264 18.5167 25.2525 18.8492 25.5432 19.1224C23.6786 21.2291 20.5965 24.7939 19.8587 26.1603ZM28.9802 15.5525L27.4391 17.099C27.4391 17.099 27.3832 16.7281 26.7562 16.0942C26.1241 15.4594 25.755 15.4089 25.755 15.4089L27.0146 14.1449L31.3656 9.77859C31.3656 9.77859 31.9285 9.77859 32.491 10.3393C33.0497 10.9037 33.0497 11.4686 33.0497 11.4686L28.9802 15.5525Z" fill="white"/>
<path d="M54.0601 35.476C52.2015 35.476 50.7395 34.9093 49.6741 33.776C48.6088 32.6427 48.0761 31.09 48.0761 29.118V17.49H52.8701V28.336C52.8701 29.2653 53.0968 29.9907 53.5501 30.512C54.0035 31.0107 54.6155 31.26 55.3861 31.26C56.1568 31.26 56.8935 31.0107 57.5961 30.512C58.3215 30.0133 58.9221 29.3447 59.3981 28.506V17.49H64.1921V35H59.3981V32.688C58.7408 33.572 57.9815 34.2633 57.1201 34.762C56.2815 35.238 55.2615 35.476 54.0601 35.476ZM68.5996 17.49H73.2916V20.516C74.017 19.3147 74.8556 18.4307 75.8076 17.864C76.7596 17.2973 77.8703 17.014 79.1396 17.014C81.021 17.014 82.4943 17.5807 83.5596 18.714C84.625 19.8247 85.1576 21.3773 85.1576 23.372V35H80.3636V24.12C80.3636 23.2133 80.137 22.5107 79.6836 22.012C79.2303 21.4907 78.6183 21.23 77.8476 21.23C76.941 21.23 76.0796 21.57 75.2636 22.25C74.4476 22.93 73.8243 23.7913 73.3936 24.834V35H68.5996V17.49ZM97.846 35.51C95.0127 35.51 92.78 34.694 91.148 33.062C89.5387 31.43 88.734 29.1633 88.734 26.262C88.734 24.3807 89.0854 22.7487 89.788 21.366C90.4907 19.9607 91.4767 18.884 92.746 18.136C94.038 17.388 95.5454 17.014 97.268 17.014C99.8067 17.014 101.756 17.83 103.116 19.462C104.476 21.094 105.156 23.4513 105.156 26.534C105.156 27.0553 105.145 27.4407 105.122 27.69H93.562C93.7887 28.8913 94.31 29.8093 95.126 30.444C95.942 31.056 97.0414 31.362 98.424 31.362C99.2627 31.362 100.135 31.26 101.042 31.056C101.949 30.8293 102.742 30.5347 103.422 30.172L104.204 34.014C103.297 34.49 102.289 34.8527 101.178 35.102C100.09 35.374 98.9794 35.51 97.846 35.51ZM100.566 24.086C100.498 23.1113 100.158 22.3407 99.546 21.774C98.934 21.1847 98.118 20.89 97.098 20.89C96.1234 20.89 95.3187 21.1733 94.684 21.74C94.072 22.3067 93.6867 23.0887 93.528 24.086H100.566ZM113.974 35.51C112.161 35.51 110.722 34.7393 109.656 33.198C108.591 31.6567 108.058 29.56 108.058 26.908C108.058 23.6893 108.874 21.2413 110.506 19.564C112.138 17.864 114.484 17.014 117.544 17.014C119.267 17.014 121.284 17.286 123.596 17.83V35H119.04L119.142 32.212H119.006C118.417 33.2773 117.692 34.0933 116.83 34.66C115.992 35.2267 115.04 35.51 113.974 35.51ZM114.994 31.328C115.697 31.328 116.388 30.954 117.068 30.206C117.748 29.458 118.383 28.4607 118.972 27.214V21.502C118.247 21.298 117.522 21.196 116.796 21.196C115.436 21.196 114.405 21.6607 113.702 22.59C113.022 23.5193 112.682 24.8907 112.682 26.704C112.682 28.132 112.886 29.2653 113.294 30.104C113.702 30.92 114.269 31.328 114.994 31.328ZM128.268 17.49H133.062V20.346H133.334C133.991 19.19 134.637 18.34 135.272 17.796C135.929 17.252 136.745 16.98 137.72 16.98C138.128 16.98 138.468 17.0253 138.74 17.116L138.23 22.284C137.641 22.1253 137.165 22.046 136.802 22.046C136.281 22.046 135.816 22.148 135.408 22.352C135.023 22.556 134.671 22.828 134.354 23.168C134.059 23.508 133.629 24.0293 133.062 24.732V35H128.268V17.49ZM148.67 35.51C147.038 35.51 145.769 35.102 144.862 34.286C143.978 33.4473 143.536 32.2687 143.536 30.75V21.604H140.816V17.49H143.536V13.75C145.146 13.478 146.732 13.274 148.296 13.138V17.49H152.716V21.604H148.296V29.866C148.296 30.342 148.432 30.7047 148.704 30.954C148.999 31.2033 149.407 31.328 149.928 31.328C150.563 31.328 151.288 31.1807 152.104 30.886L153.158 34.49C151.708 35.17 150.212 35.51 148.67 35.51ZM156.555 10.18H161.349V20.04C162.051 18.9973 162.856 18.238 163.763 17.762C164.669 17.2633 165.712 17.014 166.891 17.014C168.772 17.014 170.245 17.5807 171.311 18.714C172.376 19.8247 172.909 21.3773 172.909 23.372V35H168.115V24.12C168.115 23.2133 167.888 22.5107 167.435 22.012C166.981 21.4907 166.369 21.23 165.599 21.23C164.76 21.23 163.955 21.5247 163.185 22.114C162.437 22.6807 161.825 23.44 161.349 24.392V35H156.555V10.18Z" fill="white"/>
</svg>
